<svg xmlns="http://www.w3.org/2000/svg" width="64" height="64" id="gym"><path fill="#ffd6b6" fill-rule="evenodd" style="line-height:normal;text-indent:0;text-align:start;text-decoration-line:none;text-decoration-style:solid;text-decoration-color:#000;text-transform:none;white-space:normal;isolation:auto;mix-blend-mode:normal;solid-color:#000;solid-opacity:1" d="M-151.604 2243.313a2.5 2.5 0 0 0-1.453 4.572l8.94 6.22-5.6 5.153a2.5 2.5 0 1 0 3.386 3.68l7.895-7.266a2.5 2.5 0 0 0-.266-3.892l-11.5-8a2.5 2.5 0 0 0-1.402-.467z" color="#000" font-family="sans-serif" font-weight="400" overflow="visible" transform="translate(184.63 -2234.327)"></path><path fill="none" stroke="#ffd6b6" stroke-linecap="round" stroke-linejoin="round" stroke-width="5" d="M28.459 26.892 20.5 19.505l11.5-8"></path><path fill="#ffcaa0" fill-rule="evenodd" style="line-height:normal;text-indent:0;text-align:start;text-decoration-line:none;text-decoration-style:solid;text-decoration-color:#000;text-transform:none;white-space:normal;isolation:auto;mix-blend-mode:normal;solid-color:#000;solid-opacity:1" d="M-153.237 2243.396a2.5 2.5 0 0 0-.82.385l-2.033 1.414c.247.12.51.201.794.201h7.166v1.934h-.5v3.636l1.983 1.38c.007-.113.018-.225.018-.339V2248.953c.286-.252.5-.659.5-1.05v-1.29l-4.073-2.832a2.5 2.5 0 0 0-.828-.385h-.766zm-3.393 2.174-2 1.392v.112c0 .745.447 1.294 1 1.695v1.56h.01v1.678c0 .112.011.222.018.332l1.983-1.38v-3.485l-.78-.176c-.2-.045-.23-.069-.23-.224z" color="#000" font-family="sans-serif" font-weight="400" overflow="visible" transform="translate(184.63 -2234.327)"></path><path fill="#ffd6b6" fill-rule="evenodd" style="line-height:normal;text-indent:0;text-align:start;text-decoration-line:none;text-decoration-style:solid;text-decoration-color:#000;text-transform:none;block-progression:tb;white-space:normal;isolation:auto;mix-blend-mode:normal;solid-color:#000;solid-opacity:1" d="M-148.102 2273.33a2.5 2.5 0 1 0 0 5h5.473l-.002 7.5a2.5 2.5 0 1 0 5 0l.002-10a2.5 2.5 0 0 0-2.5-2.5h-7.973z" color="#000" font-family="sans-serif" font-weight="400" overflow="visible" transform="translate(184.63 -2234.327)"></path><path fill="#f5583b" d="M35 36h-4c-1.108 0-2 .892-2 2v4.003c0 1.108.892 2 2 2h4c1.108 0 2-.892 2-2V38c0-1.108-.892-2-2-2z"></path><path fill="#354d62" d="M33 39.003v5h7v-5z"></path><path fill="#d0e3eb" d="M46 51h-3c-.554 0-1 .446-1 1v2c0 .554.446 1 1 1h3c.554 0 1-.446 1-1v-2c0-.554-.446-1-1-1zm1-1h-5v1h5z"></path><path fill="#354d62" d="M47 51h-5v1h5z"></path><path fill="#ffd6b6" fill-rule="evenodd" style="line-height:normal;text-indent:0;text-align:start;text-decoration-line:none;text-decoration-style:solid;text-decoration-color:#000;text-transform:none;block-progression:tb;white-space:normal;isolation:auto;mix-blend-mode:normal;solid-color:#000;solid-opacity:1" d="M-164.129 2273.33a2.5 2.5 0 0 0-2.5 2.5v10a2.5 2.5 0 1 0 5 0v-7.5h5.473a2.5 2.5 0 1 0 0-5h-7.973z" color="#000" font-family="sans-serif" font-weight="400" overflow="visible" transform="translate(184.63 -2234.327)"></path><path fill="#354d62" d="M30 36h4c1.108 0 2 .892 2 2v4.003c0 1.108-.892 2-2 2h-4c-1.108 0-2-.892-2-2V38c0-1.108.892-2 2-2z"></path><path fill="#354d62" d="M32 39.003v5h-7v-5z"></path><path fill="#d0e3eb" d="M19 51h3c.555 0 1 .446 1 1v2c0 .554-.445 1-1 1h-3c-.554 0-1-.446-1-1v-2c0-.554.446-1 1-1zm-1-1h5v1h-5z"></path><path fill="#354d62" d="M18 51h5v1h-5z"></path><path fill="#ffd6b6" fill-rule="evenodd" style="line-height:normal;text-indent:0;text-align:start;text-decoration-line:none;text-decoration-style:solid;text-decoration-color:#000;text-transform:none;block-progression:tb;white-space:normal;isolation:auto;mix-blend-mode:normal;solid-color:#000;solid-opacity:1" d="M-152.168 2251.33a2.5 2.5 0 0 0-2.46 2.535v14c-.049 3.381 5.047 3.381 5 0v-14a2.5 2.5 0 0 0-2.54-2.535z" color="#000" font-family="sans-serif" font-weight="400" overflow="visible" transform="translate(184.63 -2234.327)"></path><path fill="#ffd6b6" d="M27.688 23.003h9.625c.484 0 .875.446.875 1v5c0 .554-.39 1-.875 1h-9.625c-.485 0-.875-.446-.875-1v-5c0-.554.39-1 .875-1z"></path><path fill="#ffcaa0" fill-rule="evenodd" d="M-154.499 2254.04a2.5 2.5 0 0 0-.13.827v1.902c.59.346 1.269.56 2 .56h1c.73 0 1.408-.214 2-.56v-1.902a2.5 2.5 0 0 0-.132-.826c-.28.76-.997 1.289-1.869 1.289h-1a1.966 1.966 0 0 1-1.869-1.29z" color="#000" font-family="sans-serif" font-weight="400" overflow="visible" style="line-height:normal;text-indent:0;text-align:start;text-decoration-line:none;text-decoration-style:solid;text-decoration-color:#000;text-transform:none;white-space:normal;isolation:auto;mix-blend-mode:normal;solid-color:#000;solid-opacity:1" transform="translate(184.63 -2234.327)"></path><path fill="#ffd6b6" d="M37 12.103v5.577a4.322 4.322 0 0 1-4.322 4.323h-.346a4.322 4.322 0 0 1-4.322-4.323v-5.577" class="st3"></path><path fill="#234957" d="M31 15.998a.5.5 0 0 1-.5.5.5.5 0 0 1-.5-.5.5.5 0 0 1 .5-.5.5.5 0 0 1 .5.5zm4-.041a.5.5 0 0 1-.5.5.5.5 0 0 1-.5-.5.5.5 0 0 1 .5-.5.5.5 0 0 1 .5.5z"></path><path fill="#273951" d="M28 13.003h9v2h-9z"></path><path fill="#273951" d="M30.5 10.07h-1.166c-.64 0-1.16-.478-1.166-1.117-.658.082-1.168.68-1.168 1.36v2.434c0 .736.597 1.256 1.334 1.256H37c.277 0 .5-.151.5-.426v-2.77c0-.368-.298-.747-.666-.738h-4z" class="st6"></path><path fill="#f2f2f2" d="M28 14.003v1h9v-1z"></path><path fill="#ffcaa0" d="M38 24.862v2.14c0 .563.437 1 1 1v1c-.138 0-.274-.013-.404-.04A2.014 2.014 0 0 1 37 27.007v-2.14z"></path><path fill="#ffcaa0" d="m38 22.09-1 .92v3.993c0 .137.015.27.041.4a2.01 2.01 0 0 0 1.053 1.371 2.5 2.5 0 0 0 .205-.166l.668-.615a.984.984 0 0 1-.967-.994zm-11 2.288v2.625c0 .562-.437 1-1 1v1a2.014 2.014 0 0 0 1.959-1.596c0-.001 0 0 0 0 .027-.13.041-.263.041-.4v-2.625z"></path><path fill="#ffcaa0" fill-rule="evenodd" style="line-height:normal;text-indent:0;text-align:start;text-decoration-line:none;text-decoration-style:solid;text-decoration-color:#000;text-transform:none;white-space:normal;isolation:auto;mix-blend-mode:normal;solid-color:#000;solid-opacity:1" d="M-157.63 2256.457v4.873c0 .562-.437 1-1 1v.019l.758.703a2.5 2.5 0 0 0 .086.074c.56-.266.986-.772 1.115-1.393.027-.13.041-.263.041-.4v-3.95z" color="#000" font-family="sans-serif" font-weight="400" overflow="visible" transform="translate(184.63 -2234.327)"></path><path fill="#5acfd6" d="M28 23.003v4c0 1.108-.892 2-2 2v10h13v-10c-1.108 0-2-.892-2-2v-4h-2v.5a2.48 2.48 0 0 1-.545 1.545c-.438.629-1.114.955-1.955.955s-1.516-.326-1.955-.955A2.48 2.48 0 0 1 30 23.503v-.5z"></path></svg>