<svg xmlns="http://www.w3.org/2000/svg" width="64" height="64" id="gym"><path fill="none" stroke="#000" stroke-linecap="round" stroke-linejoin="round" stroke-width="2" d="M-76.63 2408.332v7" transform="translate(94.665 -2386.332)"></path><path d="m-57.809 2423.4-4.642 1.858 4.195 10.484 7.871 7.766 3.512-3.559-7.129-7.033-3.807-9.516z" style="line-height:normal;text-indent:0;text-align:start;text-decoration-line:none;text-decoration-style:solid;text-decoration-color:#000;text-transform:none;block-progression:tb;white-space:normal;isolation:auto;mix-blend-mode:normal;solid-color:#000;solid-opacity:1" fill="#ffd6b6" fill-rule="evenodd" color="#000" enable-background="accumulate" font-family="sans-serif" font-weight="400" overflow="visible" transform="translate(94.665 -2386.332)"></path><path d="M-63.031 2424.326a2.5 2.5 0 0 0-.67.066l-8.97 2a2.5 2.5 0 0 0-1.958 2.44v11.5a2.5 2.5 0 1 0 5 0v-9.496l7.016-1.565a2.5 2.5 0 0 0-.418-4.945zM-60.166 2402.795a2.5 2.5 0 0 0-2.463 2.533v6a2.5 2.5 0 1 0 5 0v-6a2.5 2.5 0 0 0-2.537-2.535z" style="line-height:normal;text-indent:0;text-align:start;text-decoration-line:none;text-decoration-style:solid;text-decoration-color:#000;text-transform:none;block-progression:tb;white-space:normal;isolation:auto;mix-blend-mode:normal;solid-color:#000;solid-opacity:1" fill="#ffd6b6" fill-rule="evenodd" color="#000" enable-background="accumulate" font-family="sans-serif" font-weight="400" overflow="visible" transform="translate(94.665 -2386.332)"></path><path fill="#354d62" d="M2352.807 584.974h5v7h-5z" transform="rotate(77.467 1534.852 -1134.157)"></path><path fill="#354d62" d="M-61.63 2421.33h4c1.108 0 2 .892 2 2v4.002c0 1.108-.892 2-2 2h-4c-1.108 0-2-.892-2-2v-4.002c0-1.108.892-2 2-2z" transform="translate(94.665 -2386.332)"></path><path fill="#5acfd6" d="M-59.63 2407.33c2.216 0 4 1.784 4 4v8c0 2.216-1.784 4-4 4s-4-1.784-4-4v-8c0-2.216 1.784-4 4-4z" transform="translate(94.665 -2386.332)"></path><path fill="#d0e3eb" d="M-1762.452 1689.94h3c.554 0 1 .446 1 1v2c0 .555-.446 1-1 1h-3c-.554 0-1-.445-1-1v-2c0-.554.446-1 1-1zM-1763.451 1688.94h5v1h-5z" transform="rotate(-45 -2833.226 -1307.436)"></path><path fill="#273951" d="M-1763.451 1689.94h5v1h-5z" transform="rotate(-45 -2833.226 -1307.436)"></path><path fill="#5acfd6" d="M-63.63 2414.33h8v10.002h-8z" transform="translate(94.665 -2386.332)"></path><path fill="#ffd6b6" d="M-59.63 2408.83c1.385 0 2.5 1.114 2.5 2.5v3.09c0 1.384-1.115 2.5-2.5 2.5a2.495 2.495 0 0 1-2.5-2.5v-3.09c0-1.386 1.115-2.5 2.5-2.5z" transform="translate(94.665 -2386.332)"></path><path d="M-77.129 2409.332a2.5 2.5 0 1 0 0 5h15.97a2.5 2.5 0 1 0 0-5h-15.97z" style="line-height:normal;text-indent:0;text-align:start;text-decoration-line:none;text-decoration-style:solid;text-decoration-color:#000;text-transform:none;block-progression:tb;white-space:normal;isolation:auto;mix-blend-mode:normal;solid-color:#000;solid-opacity:1" fill="#ffd6b6" fill-rule="evenodd" color="#000" enable-background="accumulate" font-family="sans-serif" font-weight="400" overflow="visible" transform="translate(94.665 -2386.332)"></path><path style="line-height:normal;text-indent:0;text-align:start;text-decoration-line:none;text-decoration-style:solid;text-decoration-color:#000;text-transform:none;white-space:normal;isolation:auto;mix-blend-mode:normal;solid-color:#000;solid-opacity:1" fill="#ffcaa0" fill-rule="evenodd" d="M-62.499 2404.04a2.5 2.5 0 0 0-.13.827v1.902c.59.346 1.269.56 2 .56h1c.73 0 1.408-.214 2-.56v-1.902a2.5 2.5 0 0 0-.131-.827c-.28.76-.997 1.29-1.87 1.29h-1a1.966 1.966 0 0 1-1.869-1.29z" color="#000" enable-background="accumulate" font-family="sans-serif" font-weight="400" overflow="visible" transform="translate(94.665 -2386.332)"></path><path fill="#ffd6b6" d="M-55.635 2395.44v6.135a4.755 4.755 0 0 1-4.754 4.754h-.38a4.755 4.755 0 0 1-4.755-4.754v-6.135" class="st3" transform="translate(94.665 -2386.332)"></path><path fill="#273951" d="M-62.78 2393.264h-1.283c-.704 0-1.275-.526-1.282-1.228-.724.09-1.284.748-1.284 1.496v2.617c0 .81.656 1.38 1.466 1.38H-56.179c.304 0 .55-.165.55-.468v-2.987c0-.404-.329-.81-.733-.81h-3.85z" class="st6" transform="translate(94.665 -2386.332)"></path><path fill="#273951" d="M-58.167 2395.44a3.272 3.272 0 0 0-.762 2.09v3.3a3.29 3.29 0 0 0 2.584 3.218 4.71 4.71 0 0 0 .711-2.473v-6.136z" transform="translate(94.665 -2386.332)"></path><path fill="#ffd6b6" d="M-57.83 2399.73a1.1 1.1 0 0 1-1.1 1.1 1.1 1.1 0 0 1-1.1-1.1 1.1 1.1 0 0 1 1.1-1.1 1.1 1.1 0 0 1 1.1 1.1z" transform="translate(94.665 -2386.332)"></path><path fill="none" stroke="#273951" stroke-width="1.1" d="M-65.53 2400.28h1.1" transform="translate(94.665 -2386.332)"></path><path fill="#fff" d="M-65.53 2397.53h9.9v1.1h-9.9z" transform="translate(94.665 -2386.332)"></path><path fill="#354d62" d="M-981.978 2219.843h5v7h-5z" transform="rotate(-22.399 -5978.775 -1432.219)"></path><path fill="#d0e3eb" d="M-73.63 2440.332h3c.555 0 1 .446 1 1v2c0 .554-.445 1-1 1h-3c-.554 0-1-.446-1-1v-2c0-.554.446-1 1-1zM-74.63 2439.332h5v1h-5z" transform="translate(94.665 -2386.332)"></path><path fill="#273951" d="M-74.63 2440.332h5v1h-5z" transform="translate(94.665 -2386.332)"></path><path fill="none" stroke="#000" stroke-linecap="round" stroke-linejoin="round" d="m-76.63 2407.832 5 3.5-4.9 4.5M-71.63 2411.332h26" transform="translate(94.665 -2386.332)"></path></svg>