<svg xmlns="http://www.w3.org/2000/svg" width="64" height="64" id="gym"><path fill="#ffd6b6" fill-rule="evenodd" style="line-height:normal;text-indent:0;text-align:start;text-decoration-line:none;text-decoration-style:solid;text-decoration-color:#000;text-transform:none;block-progression:tb;white-space:normal;isolation:auto;mix-blend-mode:normal;solid-color:#000;solid-opacity:1" d="M-256.633 2471.83a2.5 2.5 0 1 0 0 5h7.5v5.473a2.5 2.5 0 1 0 5 0v-7.973a2.5 2.5 0 0 0-2.5-2.5h-10zm25.504 11a2.5 2.5 0 1 0 0 5h6a2.5 2.5 0 1 0 0-5h-6z" color="#000" font-family="sans-serif" font-weight="400" overflow="visible" transform="translate(268.13 -2449.33)"></path><path fill="#354d62" d="M27 34.5v4c0 1.108-.892 2-2 2h-5c-1.108 0-2-.892-2-2v-4c0-1.108.892-2 2-2h5c1.108 0 2 .892 2 2z"></path><path fill="#5acfd6" d="M41 36.5c0 2.216-1.784 4-4 4h-8c-2.216 0-4-1.784-4-4s1.784-4 4-4h8c2.216 0 4 1.784 4 4z"></path><path fill="#5acfd6" d="M34 32.5v8H23.998v-8z"></path><path fill="#ffd6b6" d="M39.5 36.5c0 1.385-1.115 2.5-2.5 2.5h-3.09a2.495 2.495 0 0 1-2.5-2.5c0-1.385 1.115-2.5 2.5-2.5H37c1.385 0 2.5 1.115 2.5 2.5z"></path><path fill="#ffcaa0" fill-rule="evenodd" d="M-223.84 2482.96a2.5 2.5 0 0 0-.827-.13h-1.902a3.946 3.946 0 0 0-.56 2v1c0 .73.214 1.408.56 2h1.902a2.5 2.5 0 0 0 .826-.131 1.966 1.966 0 0 1-1.289-1.87v-1c0-.872.529-1.588 1.29-1.869z" color="#000" font-family="sans-serif" font-weight="400" overflow="visible" style="line-height:normal;text-indent:0;text-align:start;text-decoration-line:none;text-decoration-style:solid;text-decoration-color:#000;text-transform:none;white-space:normal;isolation:auto;mix-blend-mode:normal;solid-color:#000;solid-opacity:1" transform="translate(268.13 -2449.33)"></path><path fill="#ffd6b6" d="M52.89 40.494h-6.135A4.755 4.755 0 0 1 42 35.74v-.38a4.755 4.755 0 0 1 4.755-4.755h6.135" class="st3"></path><path fill="#273951" d="M55.066 33.35v-1.284c0-.704.525-1.275 1.228-1.282-.09-.724-.748-1.284-1.496-1.284H52.18c-.81 0-1.381.657-1.381 1.467v8.983c0 .304.166.55.468.55h2.988c.404 0 .81-.328.81-.733v-3.85z" class="st6"></path><path fill="#273951" d="M52.89 37.962a3.273 3.273 0 0 0-2.09-.762h-3.3a3.29 3.29 0 0 0-3.218 2.584 4.71 4.71 0 0 0 2.473.711h6.135z"></path><path fill="#ffd6b6" d="M48.6 38.3a1.1 1.1 0 0 1-1.1-1.1 1.1 1.1 0 0 1 1.1-1.1 1.1 1.1 0 0 1 1.1 1.1 1.1 1.1 0 0 1-1.1 1.1z"></path><path fill="none" stroke="#273951" stroke-width="1.1" d="M48.05 30.6v1.1"></path><path fill="#fff" d="M50.8 30.6v9.9h-1.1v-9.9z"></path><path fill="#354d62" d="M23.998 36.5H18v-7h5.998z"></path><path fill="#d0e3eb" d="M12 23.5v3c0 .554-.446 1-1 1H9c-.554 0-1-.446-1-1v-3c0-.554.446-1 1-1h2c.554 0 1 .446 1 1zm1-1v5h-1v-5z"></path><path fill="#273951" d="M12 22.5v5h-1v-5z"></path><path fill="#ffd6b6" fill-rule="evenodd" style="line-height:normal;text-indent:0;text-align:start;text-decoration-line:none;text-decoration-style:solid;text-decoration-color:#000;text-transform:none;block-progression:tb;white-space:normal;isolation:auto;mix-blend-mode:normal;solid-color:#000;solid-opacity:1" d="M-232.197 2483.822a2 2 0 0 0-.53.098l-7.709 2.41h-6.693a2 2 0 1 0 0 4h7a2 2 0 0 0 .596-.092l8-2.5a2 2 0 0 0-.664-3.916z" color="#000" font-family="sans-serif" font-weight="400" overflow="visible" transform="translate(268.13 -2449.33)"></path></svg>