<svg xmlns="http://www.w3.org/2000/svg" width="64" height="64" id="gym"><path fill="#ffd6b6" fill-rule="evenodd" style="line-height:normal;text-indent:0;text-align:start;text-decoration-line:none;text-decoration-style:solid;text-decoration-color:#000;text-transform:none;block-progression:tb;white-space:normal;isolation:auto;mix-blend-mode:normal;solid-color:#000;solid-opacity:1" d="M33.442 1025.826a2.496 2.5 0 0 0-2.458 2.535v13.5a2.496 2.5 0 0 0 2.497 2.5h7.987a2.496 2.5 0 1 0 0-5h-5.491v-11a2.496 2.5 0 0 0-2.535-2.535z" color="#000" font-family="sans-serif" font-weight="400" overflow="visible" transform="translate(0 -988.362)"></path><path fill="#ffd6b6" fill-rule="evenodd" style="line-height:normal;text-indent:0;text-align:start;text-decoration-line:none;text-decoration-style:solid;text-decoration-color:#000;text-transform:none;block-progression:tb;white-space:normal;isolation:auto;mix-blend-mode:normal;solid-color:#000;solid-opacity:1" d="M22.497 1028.365a2.496 2.5 0 0 0-2.496 2.5v10a2.496 2.5 0 1 0 4.993 0v-7.5h5.462a2.496 2.5 0 1 0 0-5h-7.959zm10.945-21.539a2.496 2.5 0 0 0-2.458 2.535l-.002 6a2.496 2.5 0 1 0 4.993 0l.002-6a2.496 2.5 0 0 0-2.535-2.535z" color="#000" font-family="sans-serif" font-weight="400" overflow="visible" transform="translate(0 -988.362)"></path><path fill="#354d62" d="M31.982 37h3.993c1.107 0 1.997.892 1.997 2v4.003c0 1.108-.89 2-1.997 2h-3.993a1.994 1.994 0 0 1-1.997-2V39c0-1.108.89-2 1.997-2z"></path><path fill="#5acfd6" d="M33.979 23a3.988 3.988 0 0 1 3.993 4v8c0 2.216-1.78 4-3.993 4a3.988 3.988 0 0 1-3.994-4v-8c0-2.216 1.78-4 3.994-4z"></path><path fill="#d0e3eb" d="M39.97 55v-3c0-.554.445-1 .998-1h1.997c.553 0 .998.446.998 1v3c0 .554-.445 1-.998 1h-1.997a.997.997 0 0 1-.999-1zm-.999 1v-5h.998v5z"></path><path fill="#354d62" d="M39.97 56v-5h.998v5z"></path><path fill="#5acfd6" d="M29.985 30h7.987v10.003h-7.987z"></path><path fill="#ffd6b6" d="M33.979 24.5a2.493 2.493 0 0 1 2.496 2.5v3.09c0 1.385-1.114 2.5-2.496 2.5a2.493 2.493 0 0 1-2.497-2.5V27c0-1.385 1.114-2.5 2.497-2.5z"></path><path fill="#ffd6b6" fill-rule="evenodd" style="line-height:normal;text-indent:0;text-align:start;text-decoration-line:none;text-decoration-style:solid;text-decoration-color:#000;text-transform:none;block-progression:tb;white-space:normal;isolation:auto;mix-blend-mode:normal;solid-color:#000;solid-opacity:1" d="M26.443 1012.334a2.496 2.5 0 0 0-1.87 4.129l7.488 9a2.496 2.5 0 0 0 4.415-1.601v-7.999a2.496 2.5 0 1 0-4.992 0v1.094l-3.076-3.695a2.496 2.5 0 0 0-1.965-.928z" color="#000" font-family="sans-serif" font-weight="400" overflow="visible" transform="translate(0 -988.362)"></path><path fill="#ffcaa0" fill-rule="evenodd" d="M31.114 1008.073a2.496 2.5 0 0 0-.13.826v1.902c.59.347 1.267.561 1.996.561h.999c.729 0 1.406-.214 1.996-.56v-1.903a2.496 2.5 0 0 0-.13-.826c-.28.76-.996 1.289-1.866 1.289h-.999c-.87 0-1.586-.529-1.866-1.29z" color="#000" font-family="sans-serif" font-weight="400" overflow="visible" style="line-height:normal;text-indent:0;text-align:start;text-decoration-line:none;text-decoration-style:solid;text-decoration-color:#000;text-transform:none;white-space:normal;isolation:auto;mix-blend-mode:normal;solid-color:#000;solid-opacity:1" transform="translate(0 -988.362)"></path><path fill="#ffd6b6" d="M37.967 11.11v6.135A4.75 4.75 0 0 1 33.22 22h-.38a4.75 4.75 0 0 1-4.747-4.755v-6.134" class="st3"></path><path fill="#2c3e50" d="M30.834 8.934h-1.282c-.703 0-1.274-.525-1.28-1.228-.723.09-1.282.749-1.282 1.497v2.616c0 .81.655 1.381 1.464 1.381H37.424c.303 0 .549-.165.549-.468V9.744c0-.403-.328-.81-.732-.81h-3.845z" class="st6"></path><path fill="#2c3e50" d="M35.439 11.11a3.275 3.275 0 0 0-.761 2.09v3.3a3.289 3.289 0 0 0 2.58 3.218c.442-.722.71-1.563.71-2.472V11.11z"></path><path fill="#ffd6b6" d="M35.776 15.4a1.098 1.1 0 0 1-1.098 1.1 1.098 1.1 0 0 1-1.099-1.1 1.098 1.1 0 0 1 1.099-1.1 1.098 1.1 0 0 1 1.098 1.1z"></path><path fill="none" stroke="#2c3e50" stroke-width="1.1" d="M28.088 15.95h1.098"></path><path fill="#e8f1f5" d="M28.088 13.2h9.884v1.1h-9.884z"></path><path fill="#354d62" d="M30.983 42h4.992v7h-4.992z"></path><path fill="#354d62" d="M33.979 40.003v5h-6.99v-5z"></path><path fill="#d0e3eb" d="M20.998 52h2.996c.553 0 .999.446.999 1v2c0 .554-.446 1-.999 1h-2.996A.997.997 0 0 1 20 55v-2c0-.554.445-1 .998-1zM20 51h4.993v1H20z"></path><path fill="#354d62" d="M20 52h4.993v1H20z"></path></svg>