<svg xmlns="http://www.w3.org/2000/svg" width="64" height="64" id="gym"><path fill="#ffd6b6" fill-rule="evenodd" style="line-height:normal;text-indent:0;text-align:start;text-decoration-line:none;text-decoration-style:solid;text-decoration-color:#000;text-transform:none;block-progression:tb;white-space:normal;isolation:auto;mix-blend-mode:normal;solid-color:#000;solid-opacity:1" d="m-295.307 2419.207-1.105 4.877 19.504 4.424 1.105-4.875-19.504-4.426z" color="#000" font-family="sans-serif" font-weight="400" overflow="visible" transform="matrix(.996 0 0 1 330.979 -2386.977)"></path><path fill="none" stroke="#ffd6b6" stroke-linecap="round" stroke-linejoin="round" stroke-width="5.01" d="m-308.317 2417.794-5.851-1.327" transform="matrix(.996 0 0 1 330.979 -2386.977)"></path><path fill="#354d62" d="m33.295 34.494.88-3.9a1.987 1.987 0 0 1 2.384-1.508l3.888.885a1.996 1.996 0 0 1 1.502 2.393l-.881 3.9a1.987 1.987 0 0 1-2.384 1.509l-3.887-.886a1.996 1.996 0 0 1-1.502-2.393z"></path><path fill="#5acfd6" d="M20.137 29.447a3.975 3.975 0 0 1 4.766-3.016l7.77 1.77a3.992 3.992 0 0 1 3.005 4.785 3.975 3.975 0 0 1-4.767 3.016l-7.77-1.77a3.992 3.992 0 0 1-3.004-4.785z"></path><path fill="#d0e3eb" d="m54.443 40.337.661-2.926a.994.994 0 0 1 1.192-.754l1.943.442a.998.998 0 0 1 .75 1.197l-.66 2.925a.994.994 0 0 1-1.192.754l-1.943-.442a.998.998 0 0 1-.75-1.196zm-1.191.754 1.101-4.877.972.222-1.102 4.876z"></path><path fill="#273951" d="m54.223 41.312 1.102-4.876.971.22-1.102 4.877z"></path><path fill="#5acfd6" d="m26.055 34.896 1.762-7.801 9.716 2.212-1.763 7.802z"></path><path fill="#ffd6b6" d="M21.593 29.779a2.484 2.484 0 0 1 2.98-1.885l3.001.683a2.495 2.495 0 0 1 1.878 2.991 2.484 2.484 0 0 1-2.98 1.886l-3.001-.684a2.495 2.495 0 0 1-1.878-2.991z"></path><path fill="#ffd6b6" fill-rule="evenodd" style="line-height:normal;text-indent:0;text-align:start;text-decoration-line:none;text-decoration-style:solid;text-decoration-color:#000;text-transform:none;block-progression:tb;white-space:normal;isolation:auto;mix-blend-mode:normal;solid-color:#000;solid-opacity:1" d="M-308.445 2416.283a2 2 0 0 0-1.897 1.426l-2.287 7.268h-7.443a2 2 0 1 0 0 4h8.91a2 2 0 0 0 1.908-1.4l2.729-8.667a2 2 0 0 0-1.92-2.627z" color="#000" font-family="sans-serif" font-weight="400" overflow="visible" transform="matrix(.996 0 0 1 330.979 -2386.977)"></path><path fill="#ffcaa0" fill-rule="evenodd" d="M-315.95 2418.492a2.5 2.5 0 0 0 .778.31l1.855.422c.468-.5.827-1.114.989-1.827l.221-.975a3.946 3.946 0 0 0-.104-2.074l-1.855-.421a2.5 2.5 0 0 0-.835-.055 1.966 1.966 0 0 1 .844 2.108l-.222.975a1.966 1.966 0 0 1-1.67 1.538z" color="#000" font-family="sans-serif" font-weight="400" overflow="visible" style="line-height:normal;text-indent:0;text-align:start;text-decoration-line:none;text-decoration-style:solid;text-decoration-color:#000;text-transform:none;white-space:normal;isolation:auto;mix-blend-mode:normal;solid-color:#000;solid-opacity:1" transform="matrix(.996 0 0 1 330.979 -2386.977)"></path><path fill="#ffd6b6" d="m9.345 22.895 6.02 1.37c2.576.587 4.19 3.16 3.606 5.747l-.084.375c-.585 2.586-3.147 4.208-5.724 3.621l-6.02-1.37" class="st3"></path><path fill="#273951" d="m5.763 29.405-.283 1.252c-.155.687-.79 1.128-1.475.98-.072.725.444 1.417 1.17 1.583l2.542.578c.787.18 1.487-.334 1.665-1.124l.566-2.503.363-1.61 1.05-4.649c.067-.296-.04-.573-.333-.64l-2.902-.66c-.392-.09-.86.14-.949.535l-.848 3.755z" class="st6"></path><path fill="#273951" d="M8.893 25.388a3.258 3.258 0 0 0 1.863 1.207l3.205.73a3.273 3.273 0 0 0 3.695-1.81 4.686 4.686 0 0 0-2.245-1.24l-5.96-1.357z"></path><path fill="#ffd6b6" d="M13.151 26.01a1.096 1.1 0 0 1 .826 1.317 1.096 1.1 0 0 1-1.31.83 1.096 1.1 0 0 1-.827-1.317 1.096 1.1 0 0 1 1.311-.83z"></path><path fill="none" stroke="#273951" stroke-width="1.113" d="m-320.37 2420.7.246-1.083" transform="matrix(.996 0 0 1 330.979 -2386.977)"></path><path fill="#fff" d="m9.296 33.13 2.203-9.752 1.068.244-2.203 9.752z"></path><path fill="#354d62" d="m37.71 37.551 1.102-4.876 6.8 1.549L44.51 39.1z"></path></svg>