<svg xmlns="http://www.w3.org/2000/svg" width="64" height="64" id="gym"><path fill="#ffd6b6" fill-rule="evenodd" style="line-height:normal;text-indent:0;text-align:start;text-decoration-line:none;text-decoration-style:solid;text-decoration-color:#000;text-transform:none;block-progression:tb;white-space:normal;isolation:auto;mix-blend-mode:normal;solid-color:#000;solid-opacity:1" d="M-186.736 2320.322a2.5 2.5 0 0 0-.473 4.932l6.572 1.65 1.604 5.612a2.5 2.5 0 1 0 4.806-1.373l-2-7a2.5 2.5 0 0 0-1.794-1.739l-7.971-2a2.5 2.5 0 0 0-.744-.082zm-1.893 15.008v20h5v-20h-5z" color="#000" font-family="sans-serif" font-weight="400" overflow="visible" transform="translate(218.63 -2299.33)"></path><path fill="#ffd6b6" fill-rule="evenodd" style="line-height:normal;text-indent:0;text-align:start;text-decoration-line:none;text-decoration-style:solid;text-decoration-color:#000;text-transform:none;block-progression:tb;white-space:normal;isolation:auto;mix-blend-mode:normal;solid-color:#000;solid-opacity:1" d="M-197.129 2335.332a2.5 2.5 0 0 0-2.5 2.5v10a2.5 2.5 0 1 0 5 0v-7.5h5.473a2.5 2.5 0 1 0 0-5h-7.973zm10.963-21.537a2.5 2.5 0 0 0-2.463 2.533v6a2.5 2.5 0 1 0 5 0v-6a2.5 2.5 0 0 0-2.537-2.535z" color="#000" font-family="sans-serif" font-weight="400" overflow="visible" transform="translate(218.63 -2299.33)"></path><path fill="#354d62" d="M31 33h4c1.108 0 2 .892 2 2v4.002c0 1.108-.892 2-2 2h-4c-1.108 0-2-.892-2-2V35c0-1.108.892-2 2-2z"></path><path fill="#5acfd6" d="M33 19c2.216 0 4 1.784 4 4v8c0 2.216-1.784 4-4 4s-4-1.784-4-4v-8c0-2.216 1.784-4 4-4z"></path><path fill="#d0e3eb" d="M31 55h3c.555 0 1 .445 1 1v2c0 .554-.445 1-1 1h-3c-.553 0-1-.446-1-1v-2c0-.555.447-1 1-1zm-1-1h5v1h-5z"></path><path fill="#273951" d="M30 55h5v1h-5z"></path><path fill="#5acfd6" d="M29 26h8v10.002h-8z"></path><path fill="#ffd6b6" d="M33 20.5c1.385 0 2.5 1.114 2.5 2.5v3.09c0 1.384-1.115 2.5-2.5 2.5a2.495 2.495 0 0 1-2.5-2.5V23c0-1.386 1.115-2.5 2.5-2.5z"></path><path fill="#ffd6b6" fill-rule="evenodd" style="line-height:normal;text-indent:0;text-align:start;text-decoration-line:none;text-decoration-style:solid;text-decoration-color:#000;text-transform:none;block-progression:tb;white-space:normal;isolation:auto;mix-blend-mode:normal;solid-color:#000;solid-opacity:1" d="M-197.166 2311.297a2.5 2.5 0 0 0-2.463 2.535v9a2.5 2.5 0 0 0 2.5 2.5h9.97a2.5 2.5 0 1 0 0-5h-7.47v-6.5a2.5 2.5 0 0 0-2.537-2.535z" color="#000" font-family="sans-serif" font-weight="400" overflow="visible" transform="translate(218.63 -2299.33)"></path><path fill="#ffcaa0" fill-rule="evenodd" style="line-height:normal;text-indent:0;text-align:start;text-decoration-line:none;text-decoration-style:solid;text-decoration-color:#000;text-transform:none;white-space:normal;isolation:auto;mix-blend-mode:normal;solid-color:#000;solid-opacity:1" d="M-188.499 2315.04a2.5 2.5 0 0 0-.13.827v1.902c.59.346 1.269.56 2 .56h1c.73 0 1.408-.214 2-.56v-1.902a2.5 2.5 0 0 0-.131-.827c-.28.76-.997 1.29-1.87 1.29h-1a1.966 1.966 0 0 1-1.869-1.29z" color="#000" font-family="sans-serif" font-weight="400" overflow="visible" transform="translate(218.63 -2299.33)"></path><path fill="#ffd6b6" d="M36.995 7.11v6.135a4.755 4.755 0 0 1-4.754 4.754h-.38a4.755 4.755 0 0 1-4.755-4.754V7.11" class="st3"></path><path fill="#273951" d="M29.85 4.934h-1.283c-.704 0-1.275-.525-1.282-1.228-.724.09-1.284.748-1.284 1.496V7.82c0 .81.656 1.38 1.466 1.38H36.451c.304 0 .55-.165.55-.468V5.744c0-.404-.329-.81-.733-.81h-3.85z" class="st6"></path><path fill="#273951" d="M34.463 7.11a3.272 3.272 0 0 0-.762 2.09v3.3a3.29 3.29 0 0 0 2.584 3.218 4.71 4.71 0 0 0 .711-2.473V7.11z"></path><path fill="#ffd6b6" d="M34.8 11.4a1.1 1.1 0 0 1-1.1 1.1 1.1 1.1 0 0 1-1.1-1.1 1.1 1.1 0 0 1 1.1-1.1 1.1 1.1 0 0 1 1.1 1.1z"></path><path fill="none" stroke="#273951" stroke-width="1.1" d="M27.1 11.95h1.1"></path><path fill="#fff" d="M27.1 9.2H37v1.1h-9.9z"></path><path fill="#354d62" d="M30 38h5v7h-5z"></path><path fill="#354d62" d="M33 36.002v5h-7v-5z"></path><path fill="#d0e3eb" d="M20 48h3c.555 0 1 .446 1 1v2c0 .554-.445 1-1 1h-3c-.554 0-1-.446-1-1v-2c0-.554.446-1 1-1zm-1-1h5v1h-5z"></path><path fill="#273951" d="M19 48h5v1h-5z"></path></svg>